<svg width="99" height="36" viewBox="0 0 99 36" fill="none" xmlns="http://www.w3.org/2000/svg">
<path d="M54.1913 16.6108C53.0225 16.1247 48.7279 15.456 48.7279 13.6037C48.7279 12.2367 50.3313 11.8418 51.2993 11.8418C52.1929 11.81 53.0697 12.0994 53.782 12.6614C54.0497 12.9136 54.2594 13.2251 54.3956 13.573C54.5416 13.9679 54.6293 14.3926 55.1838 14.3926H58.0471C58.7222 14.3926 58.891 14.2715 58.891 13.5423C58.891 9.53237 54.8293 7.77045 51.1195 7.77045C47.4671 7.92312 44.0198 9.86669 44.0198 13.8161C44.0198 17.6769 46.7372 18.8895 49.6883 19.8608C52.171 20.6812 54.7719 20.712 54.7719 22.4125C54.7719 24.113 53.4858 24.4789 51.9086 24.4789C51.3909 24.5218 50.8702 24.455 50.378 24.2826C49.8858 24.1102 49.4324 23.8358 49.0452 23.4759C48.7305 23.1378 48.5348 22.6991 48.4899 22.2308C48.4317 21.471 48.1102 21.3797 47.4376 21.3797H44.6122C43.9371 21.3797 43.7683 21.5315 43.7683 22.2308C43.7683 26.4838 47.9752 28.6704 51.6284 28.6704C56.1272 28.6704 59.3999 26.6041 59.3999 22.2914C59.3999 18.1595 56.3028 17.2785 54.1989 16.6108H54.1913Z" fill="white"/>
<path d="M98.0733 7.77269H83.2519C82.5185 7.77269 82.3263 8.12279 82.3263 8.69405V11.3292C82.3263 11.9005 82.5174 12.2505 83.2519 12.2505H88.1708V27.7491C88.1708 28.4793 88.5229 28.6704 89.0975 28.6704H92.2601C92.8347 28.6704 93.1868 28.4804 93.1868 27.7491V12.2483H98.0733C98.8088 12.2483 99 11.8993 99 11.327V8.69181C99 8.12055 98.8077 7.77045 98.0733 7.77045V7.77269Z" fill="white"/>
<path d="M31.2129 5.70652C28.1241 2.41842 23.937 0.411012 19.4665 0.0749421L23.6489 14.9109C23.7201 15.1629 23.691 15.4331 23.568 15.6638C23.5072 15.7786 23.4245 15.88 23.3248 15.9622C23.2251 16.0445 23.1102 16.1059 22.9869 16.1429C22.9483 16.1544 22.9091 16.1635 22.8694 16.17H22.8516C22.806 16.177 22.7599 16.1807 22.7137 16.1808H13.4972C13.3683 16.1809 13.2407 16.155 13.122 16.1044C13.0032 16.0538 12.8957 15.9796 12.8057 15.8863C12.6933 15.7712 12.6102 15.6301 12.5637 15.4752C12.5172 15.3203 12.5086 15.1563 12.5387 14.9973C12.5481 14.944 12.5621 14.8915 12.5806 14.8406L16.7443 0.0704346C12.5176 0.393553 8.53683 2.2071 5.49539 5.19514C2.45395 8.18318 0.544604 12.1564 0.0999447 16.4226C-0.344715 20.6888 0.703497 24.9778 3.06198 28.5423C5.42046 32.1068 8.93975 34.7211 13.0068 35.9296L7.26976 18.753C7.21753 18.5993 7.19018 18.4381 7.18878 18.2756C7.18695 18.0869 7.2329 17.9009 7.32226 17.7352L7.33294 17.7154C7.4454 17.5227 7.62408 17.3788 7.83483 17.311C7.96174 17.2689 8.09459 17.2479 8.22816 17.2489H12.0689C12.4871 17.2094 12.9049 17.3288 13.2409 17.5839C13.5131 17.8525 13.7068 18.1919 13.8006 18.5647C13.8165 18.5914 13.8288 18.6202 13.8371 18.6503L17.9074 33.0872C17.9166 33.1221 17.9326 33.1547 17.9545 33.1831C17.9763 33.2116 18.0036 33.2353 18.0347 33.2529C18.0842 33.2807 18.1414 33.2914 18.1974 33.2832C18.2535 33.2751 18.3054 33.2487 18.3452 33.2079C18.3777 33.1742 18.4013 33.1326 18.4138 33.0872L22.4787 18.6674C22.4943 18.6009 22.5283 18.5403 22.5766 18.4927C22.6704 18.1447 22.8577 17.8298 23.1177 17.583C23.4638 17.3279 23.8899 17.2092 24.3163 17.2489H27.9845C28.1177 17.248 28.2503 17.2689 28.3769 17.311C28.5871 17.3779 28.7653 17.5214 28.877 17.7136C28.9757 17.8852 29.0265 18.0807 29.0238 18.2792C29.0223 18.4414 28.9949 18.6023 28.9429 18.7556L23.236 35.9242C26.211 35.0339 28.9101 33.385 31.0746 31.1357C33.239 28.8864 34.7963 26.1121 35.597 23.0787C36.3978 20.0453 36.4151 16.8547 35.6474 13.8126C34.8798 10.7705 33.3528 7.97894 31.2129 5.70564V5.70652Z" fill="white"/>
<path d="M79.6292 7.77137H76.3748C75.5456 7.77137 75.331 8.02556 75.0854 8.78811L70.9406 21.9405L66.7657 8.78719C66.52 8.02463 66.3054 7.77045 65.5065 7.77045H62.0986C61.5151 7.77045 61.3892 8.2779 61.5461 8.68808L68.1464 27.717C68.5153 28.5429 68.7299 28.6704 69.4056 28.6704H72.3532C73.0281 28.6704 73.24 28.5429 73.6116 27.717L80.1817 8.68808C80.3351 8.27423 80.2118 7.77137 79.6292 7.77137Z" fill="white"/>
</svg>
