<svg width="20" height="21" viewBox="0 0 20 21" fill="none" xmlns="http://www.w3.org/2000/svg">
<g clip-path="url(#clip0_16_558)">
<path d="M19.1718 18.753L14.4845 13.7806C15.6901 12.3217 16.3509 10.475 16.3501 8.56711C16.3475 6.41711 15.5089 4.35593 14.0183 2.83565C12.5278 1.31538 10.5068 0.460116 8.39881 0.457458C6.29033 0.460118 4.26899 1.31576 2.77832 2.83663C1.28765 4.3575 0.449405 6.41938 0.44751 8.56985C0.450116 10.7198 1.28868 12.781 2.77927 14.3013C4.26986 15.8216 6.29079 16.6768 8.39881 16.6795C10.0298 16.6839 11.6218 16.1712 12.9546 15.2122L17.6777 20.2221C17.7742 20.325 17.8903 20.4068 18.0188 20.4625C18.1473 20.5183 18.2856 20.5467 18.4252 20.5462C18.6924 20.5463 18.9491 20.4405 19.1414 20.2513C19.2399 20.155 19.3189 20.0399 19.3737 19.9124C19.4286 19.785 19.4583 19.6478 19.4611 19.5086C19.4639 19.3695 19.4398 19.2311 19.3902 19.1015C19.3406 18.9718 19.2664 18.8534 19.1718 18.753ZM8.39881 2.57207C9.9577 2.57376 11.4522 3.2063 12.5543 4.33081C13.6563 5.45533 14.2758 6.97991 14.2768 8.56985C14.2749 10.159 13.6551 11.6825 12.5533 12.8062C11.4516 13.9299 9.95782 14.562 8.3997 14.564C6.84128 14.5625 5.34706 13.9306 4.24491 12.8069C3.14277 11.6831 2.52272 10.1593 2.52083 8.56985C2.52178 6.97991 3.14128 5.45533 4.24333 4.33081C5.34539 3.2063 6.83992 2.57376 8.39881 2.57207Z" fill="#099F8C" stroke="#099F8C"/>
</g>
<defs>
<clipPath id="clip0_16_558">
<rect width="20" height="21" fill="white"/>
</clipPath>
</defs>
</svg>
